0
SECTION
2
HEADER
9
$INSUNITS
70
4
0
ENDSEC
0
SECTION
2
TABLES
0
TABLE
2
LTYPE
0
LTYPE
72
65
70
64
2
CONTINUOUS
3
______
73
0
40
0
0
ENDTAB
0
TABLE
2
LAYER
0
ENDTAB
0
ENDSEC
0
SECTION
2
ENTITIES
0
LINE
8
0
10
-15.4226276
20
56.7847
11
1.9640372
21
61.4434428
0
LINE
8
0
10
1.9640372
20
61.4434428
11
6.62278
21
44.056778
0
LINE
8
0
10
6.62278
20
44.056778
11
-10.7638848
21
39.3980352
0
LINE
8
0
10
-10.7638848
20
39.3980352
11
-15.4226276
21
56.7847
0
LINE
8
0
10
-19.8225514
20
73.205439
11
-2.4358866
21
77.8641818
0
LINE
8
0
10
-2.4358866
20
77.8641818
11
2.2228562
21
60.477517
0
LINE
8
0
10
2.2228562
20
60.477517
11
-15.1638086
21
55.8187742
0
LINE
8
0
10
-15.1638086
20
55.8187742
11
-19.8225514
21
73.205439
0
LINE
8
0
10
-24.2224752
20
89.626178
11
-6.8358104
21
94.2849208
0
LINE
8
0
10
-6.8358104
20
94.2849208
11
-2.1770676
21
76.898256
0
LINE
8
0
10
-2.1770676
20
76.898256
11
-19.5637324
21
72.2395132
0
LINE
8
0
10
-19.5637324
20
72.2395132
11
-24.2224752
21
89.626178
0
LINE
8
0
10
1.7549394
20
80.1961423
11
19.686444
21
81.7649457
0
LINE
8
0
10
19.686444
20
81.7649457
11
21.2552474
21
63.8334411
0
LINE
8
0
10
21.2552474
20
63.8334411
11
3.3237428
21
62.2646377
0
LINE
8
0
10
3.3237428
20
62.2646377
11
1.7549394
21
80.1961423
0
LINE
8
0
10
0.2732918
20
97.1314522
11
18.2047964
21
98.7002556
0
LINE
8
0
10
18.2047964
20
98.7002556
11
19.7735998
21
80.768751
0
LINE
8
0
10
19.7735998
20
80.768751
11
1.8420952
21
79.1999476
0
LINE
8
0
10
1.8420952
20
79.1999476
11
0.2732918
21
97.1314522
0
LINE
8
0
10
-1.2083558
20
114.0667621
11
16.7231488
21
115.6355655
0
LINE
8
0
10
16.7231488
20
115.6355655
11
18.2919522
21
97.7040609
0
LINE
8
0
10
18.2919522
20
97.7040609
11
0.3604476
21
96.1352575
0
LINE
8
0
10
0.3604476
20
96.1352575
11
-1.2083558
21
114.0667621
0
LINE
8
0
10
21.624363
20
88.2933885
11
39.624363
21
88.2933885
0
LINE
8
0
10
39.624363
20
88.2933885
11
39.624363
21
70.2933885
0
LINE
8
0
10
39.624363
20
70.2933885
11
21.624363
21
70.2933885
0
LINE
8
0
10
21.624363
20
70.2933885
11
21.624363
21
88.2933885
0
LINE
8
0
10
21.824363
20
105.2933885
11
39.824363
21
105.2933885
0
LINE
8
0
10
39.824363
20
105.2933885
11
39.824363
21
87.2933885
0
LINE
8
0
10
39.824363
20
87.2933885
11
21.824363
21
87.2933885
0
LINE
8
0
10
21.824363
20
87.2933885
11
21.824363
21
105.2933885
0
LINE
8
0
10
22.024363
20
122.2933885
11
40.024363
21
122.2933885
0
LINE
8
0
10
40.024363
20
122.2933885
11
40.024363
21
104.2933885
0
LINE
8
0
10
40.024363
20
104.2933885
11
22.024363
21
104.2933885
0
LINE
8
0
10
22.024363
20
104.2933885
11
22.024363
21
122.2933885
0
LINE
8
0
10
41.7246601
20
83.3121857
11
59.6561647
21
81.7433823
0
LINE
8
0
10
59.6561647
20
81.7433823
11
58.0873613
21
63.8118777
0
LINE
8
0
10
58.0873613
20
63.8118777
11
40.1558567
21
65.3806811
0
LINE
8
0
10
40.1558567
20
65.3806811
11
41.7246601
21
83.3121857
0
LINE
8
0
10
43.2063077
20
100.2474956
11
61.1378123
21
98.6786922
0
LINE
8
0
10
61.1378123
20
98.6786922
11
59.5690089
21
80.7471876
0
LINE
8
0
10
59.5690089
20
80.7471876
11
41.6375043
21
82.315991
0
LINE
8
0
10
41.6375043
20
82.315991
11
43.2063077
21
100.2474956
0
LINE
8
0
10
44.6879553
20
117.1828055
11
62.6194599
21
115.6140021
0
LINE
8
0
10
62.6194599
20
115.6140021
11
61.0506565
21
97.6824975
0
LINE
8
0
10
61.0506565
20
97.6824975
11
43.1191519
21
99.2513009
0
LINE
8
0
10
43.1191519
20
99.2513009
11
44.6879553
21
117.1828055
0
LINE
8
0
10
59.4092235
20
78.9208307
11
77.3407281
21
77.3520273
0
LINE
8
0
10
77.3407281
20
77.3520273
11
75.7719247
21
59.4205227
0
LINE
8
0
10
75.7719247
20
59.4205227
11
57.8404201
21
60.9893261
0
LINE
8
0
10
57.8404201
20
60.9893261
11
59.4092235
21
78.9208307
0
LINE
8
0
10
60.8908711
20
95.8561406
11
78.8223757
21
94.2873372
0
LINE
8
0
10
78.8223757
20
94.2873372
11
77.2535723
21
76.3558326
0
LINE
8
0
10
77.2535723
20
76.3558326
11
59.3220677
21
77.924636
0
LINE
8
0
10
59.3220677
20
77.924636
11
60.8908711
21
95.8561406
0
LINE
8
0
10
62.3725187
20
112.7914505
11
80.3040233
21
111.2226471
0
LINE
8
0
10
80.3040233
20
111.2226471
11
78.7352199
21
93.2911425
0
LINE
8
0
10
78.7352199
20
93.2911425
11
60.8037153
21
94.8599459
0
LINE
8
0
10
60.8037153
20
94.8599459
11
62.3725187
21
112.7914505
0
LINE
8
0
10
59.7511387
20
41.2832232
11
76.0646788
21
33.6760945
0
LINE
8
0
10
76.0646788
20
33.6760945
11
68.4575501
21
17.3625544
0
LINE
8
0
10
68.4575501
20
17.3625544
11
52.14401
21
24.9696831
0
LINE
8
0
10
52.14401
20
24.9696831
11
59.7511387
21
41.2832232
0
LINE
8
0
10
66.9356491
20
56.6904556
11
83.2491892
21
49.0833269
0
LINE
8
0
10
83.2491892
20
49.0833269
11
75.6420605
21
32.7697868
0
LINE
8
0
10
75.6420605
20
32.7697868
11
59.3285204
21
40.3769155
0
LINE
8
0
10
59.3285204
20
40.3769155
11
66.9356491
21
56.6904556
0
LINE
8
0
10
78.8574051
20
32.0637132
11
93.6021419
21
21.7393374
0
LINE
8
0
10
93.6021419
20
21.7393374
11
83.2777661
21
6.9946006
0
LINE
8
0
10
83.2777661
20
6.9946006
11
68.5330293
21
17.3189764
0
LINE
8
0
10
68.5330293
20
17.3189764
11
78.8574051
21
32.0637132
0
LINE
8
0
10
88.6082045
20
45.989298
11
103.3529413
21
35.6649222
0
LINE
8
0
10
103.3529413
20
35.6649222
11
93.0285655
21
20.9201854
0
LINE
8
0
10
93.0285655
20
20.9201854
11
78.2838287
21
31.2445612
0
LINE
8
0
10
78.2838287
20
31.2445612
11
88.6082045
21
45.989298
0
LINE
8
0
10
96.1786735
20
19.463597
11
108.9065956
21
6.7356749
0
LINE
8
0
10
108.9065956
20
6.7356749
11
96.1786735
21
-5.9922472
0
LINE
8
0
10
96.1786735
20
-5.9922472
11
83.4507514
21
6.7356749
0
LINE
8
0
10
83.4507514
20
6.7356749
11
96.1786735
21
19.463597
0
LINE
8
0
10
108.1994888
20
31.4844123
11
120.9274109
21
18.7564902
0
LINE
8
0
10
120.9274109
20
18.7564902
11
108.1994888
21
6.0285681
0
LINE
8
0
10
108.1994888
20
6.0285681
11
95.4715667
21
18.7564902
0
LINE
8
0
10
95.4715667
20
18.7564902
11
108.1994888
21
31.4844123
0
ENDSEC
0
EOF